<svg xmlns="http://www.w3.org/2000/svg" xmlns:xlink="http://www.w3.org/1999/xlink" viewBox="0 0 173.25 173.25"><defs><style>.cls-1{fill:url(#Degradado_sin_nombre_11);}.cls-2{fill:#fff;}</style><linearGradient id="Degradado_sin_nombre_11" x1="166.1" y1="166.1" x2="7.14" y2="7.14" gradientUnits="userSpaceOnUse"><stop offset="0" stop-color="#38e1ff"/><stop offset="1" stop-color="#4a78fc"/></linearGradient></defs><g id="Capa_2" data-name="Capa 2"><g id="Capa_1-2" data-name="Capa 1"><rect class="cls-1" width="173.25" height="173.25" rx="24.39"/><path class="cls-2" d="M110.81,40.06a3.39,3.39,0,0,0-.28-4.25l-8.27-8.28a3.25,3.25,0,0,0-4.58,0L27.53,97.68a3.25,3.25,0,0,0,0,4.58l8.28,8.27a3.39,3.39,0,0,0,4.25.28,16.07,16.07,0,0,1,22.37,22.38,3.4,3.4,0,0,0,.29,4.25L71,145.71a3.23,3.23,0,0,0,4.58,0l70.14-70.14a3.23,3.23,0,0,0,0-4.58l-8.27-8.27a3.4,3.4,0,0,0-4.25-.29,16.07,16.07,0,0,1-22.38-22.37ZM123.2,88a1.53,1.53,0,0,1,0,2.15l-.56.56a1.52,1.52,0,0,1-2.16,0L114,84.28a1.54,1.54,0,0,1,0-2.16l.57-.56a1.51,1.51,0,0,1,2.15,0ZM112.7,77.49a1.54,1.54,0,0,1,0,2.16l-.57.56a1.51,1.51,0,0,1-2.15,0l-6.44-6.44a1.51,1.51,0,0,1,0-2.15l.56-.57a1.54,1.54,0,0,1,2.16,0ZM102.19,67a1.51,1.51,0,0,1,0,2.15l-.56.57a1.54,1.54,0,0,1-2.16,0L93,63.27a1.52,1.52,0,0,1,0-2.16l.56-.56a1.53,1.53,0,0,1,2.15,0Zm-10.5-10.5a1.51,1.51,0,0,1,0,2.15l-.56.57a1.54,1.54,0,0,1-2.16,0l-6.44-6.44a1.54,1.54,0,0,1,0-2.16l.57-.56a1.51,1.51,0,0,1,2.15,0Z"/></g></g></svg>