<svg xmlns="http://www.w3.org/2000/svg" viewBox="0 0 129.67 129.67"><defs><style>.cls-1{fill:#fff;}</style></defs><g id="Capa_2" data-name="Capa 2"><g id="Capa_1-2" data-name="Capa 1"><path class="cls-1" d="M91,14.55a3.67,3.67,0,0,0-.3-4.59L81.72,1a3.51,3.51,0,0,0-5,0L1,76.77a3.51,3.51,0,0,0,0,5L10,90.66a3.67,3.67,0,0,0,4.59.3,17.35,17.35,0,0,1,24.16,24.17,3.66,3.66,0,0,0,.31,4.58L48,128.65a3.49,3.49,0,0,0,4.95,0L128.65,52.9a3.49,3.49,0,0,0,0-4.95L119.71,39a3.66,3.66,0,0,0-4.58-.31A17.35,17.35,0,0,1,91,14.55Zm13.38,51.77a1.65,1.65,0,0,1,0,2.33l-.61.6a1.64,1.64,0,0,1-2.33,0l-7-7a1.64,1.64,0,0,1,0-2.33l.6-.6a1.64,1.64,0,0,1,2.33,0ZM93,55a1.62,1.62,0,0,1,0,2.32l-.6.61a1.65,1.65,0,0,1-2.33,0L83.1,51a1.65,1.65,0,0,1,0-2.33l.61-.61A1.65,1.65,0,0,1,86,48ZM81.65,43.63a1.65,1.65,0,0,1,0,2.33l-.61.61a1.64,1.64,0,0,1-2.32,0l-7-7a1.65,1.65,0,0,1,0-2.33l.61-.61a1.65,1.65,0,0,1,2.33,0ZM70.31,32.29a1.65,1.65,0,0,1,0,2.33l-.61.61a1.65,1.65,0,0,1-2.33,0l-7-7a1.64,1.64,0,0,1,0-2.32l.61-.61a1.65,1.65,0,0,1,2.33,0Z"/></g></g></svg>